# xmcd
#
# Track frame offsets: 
#        182
#        19057
#        35362
#
# Disc length: 799 seconds
#
# Revision: 5
# Processed by: cddbd v1.5.2PL0 Copyright (c) Steve Scherf et al.
# Submitted via: ExactAudioCopy v0.95b4
#
DISCID=19031d03
DTITLE=Edo Zanki - Wilde Orchideen
DYEAR=1900
DGENRE=Rock
TTITLE0=Wilde Orchideen (Radio Version)
TTITLE1=JAJAJA
TTITLE2=Wilde Orchideen (Album Version)
EXTD=
EXTT0=
EXTT1=
EXTT2=
PLAYORDER=
